<svg width="60" height="55" viewBox="0 0 60 55" fill="none" xmlns="http://www.w3.org/2000/svg">
<path d="M59.985 34.8551L57.1255 15.6441C57.0792 10.0657 53.693 4.89303 47.8159 1.43765C42.9483 -1.42395 36.6213 -3 30.0001 -3C23.3786 -3 17.0515 -1.42395 12.1838 1.43765C6.3069 4.89303 2.92054 10.0657 2.87437 15.6441L0.0148828 34.8551C0.00503905 34.9216 0 34.9887 0 35.056C0 40.7049 3.76452 45.936 10.3284 49.408C15.7022 52.2504 22.6883 53.8158 30.0001 53.8158C37.3116 53.8158 44.2978 52.2504 49.6716 49.408C56.2354 45.936 60 40.7049 60 35.056C59.9999 34.9888 59.9949 34.9216 59.985 34.8551ZM13.5668 3.78995C18.0215 1.17105 23.8576 -0.271295 30.0001 -0.271295C36.1424 -0.271295 41.9785 1.17105 46.4331 3.78995C51.4956 6.76627 54.3993 11.1293 54.3993 15.7599C54.3993 20.3906 51.4957 24.7535 46.4332 27.7299C41.9785 30.3488 36.1424 31.7911 30.0001 31.7911C23.8577 31.7911 18.0215 30.3488 13.5669 27.7299C8.5044 24.7536 5.60073 20.3906 5.60073 15.7599C5.60073 11.1293 8.50428 6.76639 13.5668 3.78995ZM48.3956 46.996C43.4079 49.6342 36.875 51.0871 30.0001 51.0871C23.125 51.0871 16.592 49.6342 11.6044 46.996C6.00374 44.0333 2.77453 39.7218 2.72917 35.1535L4.60757 22.5342C6.17225 25.4612 8.75283 28.0645 12.1841 30.0819C17.0517 32.9434 23.3787 34.5195 30.0001 34.5195C36.6213 34.5195 42.9485 32.9434 47.816 30.0819C51.2473 28.0645 53.8279 25.461 55.3925 22.5342L57.2709 35.1535C57.2255 39.7219 53.9963 44.0335 48.3956 46.996Z" fill="#F1CDB3"/>
<path d="M30.0001 29.0618C39.3534 29.0618 47.6079 25.4427 50.5397 20.0569C51.29 18.6803 51.6707 17.2344 51.6707 15.7599C51.6707 12.0676 49.3194 8.65197 45.0502 6.14217C41.0085 3.76631 35.6637 2.45791 30.0001 2.45791C24.3366 2.45791 18.9916 3.76643 14.9501 6.14229C10.6807 8.65209 8.32945 12.0676 8.32945 15.76C8.32945 17.2347 8.70996 18.6804 9.46008 20.0563C12.3923 25.4427 20.6467 29.0618 30.0001 29.0618ZM30.0001 26.3332C22.1546 26.3332 15.0282 23.5145 12.2557 19.4006C15.0293 15.2891 22.1568 12.4732 30.0001 12.4732C37.8435 12.4732 44.9711 15.2891 47.7446 19.4008C44.9726 23.5145 37.8458 26.3332 30.0001 26.3332ZM11.0579 15.76C11.058 13.0744 12.9313 10.4942 16.3328 8.49447C19.9617 6.36131 24.8154 5.18651 30 5.18651C35.1845 5.18651 40.0384 6.36131 43.6672 8.49459C47.0687 10.4942 48.9421 13.0743 48.9421 15.76C48.9421 15.9993 48.9259 16.238 48.896 16.4761C45.1332 12.3699 37.9658 9.74463 30 9.74463C22.0342 9.74463 14.8669 12.37 11.1041 16.4761C11.0738 16.2386 11.0584 15.9994 11.0579 15.76Z" fill="#F1CDB3"/>
<path d="M30 36.7701C29.8155 36.7701 29.6329 36.8076 29.4633 36.8801C29.2936 36.9527 29.1405 37.059 29.0131 37.1924C28.1243 38.1235 25.225 41.3365 25.225 43.5916C25.225 46.2246 27.367 48.3666 30 48.3666C32.633 48.3666 34.775 46.2246 34.775 43.5916C34.775 41.3365 31.8756 38.1235 30.987 37.1924C30.8595 37.059 30.7064 36.9527 30.5368 36.8801C30.3671 36.8076 30.1845 36.7701 30 36.7701ZM30 45.6381C28.8716 45.6381 27.9536 44.7201 27.9536 43.5917C27.9536 42.986 28.9058 41.5224 30 40.1941C31.0943 41.5226 32.0465 42.986 32.0465 43.5917C32.0465 44.7201 31.1284 45.6381 30 45.6381Z" fill="#F1CDB3"/>
<path d="M23.8843 18.8977H23.4637C22.7102 18.8977 22.0994 19.5085 22.0994 20.262C22.0994 21.0155 22.7102 21.6263 23.4637 21.6263H23.8843C24.6378 21.6263 25.2486 21.0155 25.2486 20.262C25.2486 19.5085 24.6378 18.8977 23.8843 18.8977Z" fill="#F1CDB3"/>
<path d="M40.074 18.8977H30.342C29.5884 18.8977 28.9777 19.5085 28.9777 20.262C28.9777 21.0155 29.5884 21.6263 30.342 21.6263H40.074C40.8275 21.6263 41.4383 21.0155 41.4383 20.262C41.4383 19.5085 40.8275 18.8977 40.074 18.8977Z" fill="#F1CDB3"/>
</svg>
